<svg width="1760" height="25" viewBox="0 0 1760 25" fill="none" xmlns="http://www.w3.org/2000/svg">
<g clip-path="url(#clip0_1_161)">
<path d="M992.784 12.466C993.888 13.102 994.44 14.062 994.44 15.346C994.44 16.414 994.062 17.29 993.306 17.974C992.55 18.658 991.62 19 990.516 19H985.17V6.4H990.138C991.218 6.4 992.124 6.736 992.856 7.408C993.6 8.068 993.972 8.914 993.972 9.946C993.972 10.99 993.576 11.83 992.784 12.466ZM990.138 8.722H987.654V11.494H990.138C990.522 11.494 990.84 11.362 991.092 11.098C991.356 10.834 991.488 10.504 991.488 10.108C991.488 9.712 991.362 9.382 991.11 9.118C990.858 8.854 990.534 8.722 990.138 8.722ZM990.516 16.678C990.936 16.678 991.284 16.54 991.56 16.264C991.836 15.976 991.974 15.616 991.974 15.184C991.974 14.764 991.836 14.416 991.56 14.14C991.284 13.852 990.936 13.708 990.516 13.708H987.654V16.678H990.516ZM995.96 19V5.86H998.282V19H995.96ZM1008.08 17.884C1007.15 18.796 1006.02 19.252 1004.69 19.252C1003.36 19.252 1002.23 18.796 1001.31 17.884C1000.4 16.96 999.94 15.832 999.94 14.5C999.94 13.168 1000.4 12.046 1001.31 11.134C1002.23 10.21 1003.36 9.748 1004.69 9.748C1006.02 9.748 1007.15 10.21 1008.08 11.134C1009 12.046 1009.46 13.168 1009.46 14.5C1009.46 15.832 1009 16.96 1008.08 17.884ZM1002.95 16.282C1003.41 16.75 1004 16.984 1004.69 16.984C1005.39 16.984 1005.97 16.75 1006.44 16.282C1006.91 15.814 1007.14 15.22 1007.14 14.5C1007.14 13.78 1006.91 13.186 1006.44 12.718C1005.97 12.25 1005.39 12.016 1004.69 12.016C1004 12.016 1003.41 12.25 1002.95 12.718C1002.49 13.186 1002.26 13.78 1002.26 14.5C1002.26 15.22 1002.49 15.814 1002.95 16.282ZM1017.99 10H1020.26V18.568C1020.26 19.96 1019.8 21.022 1018.87 21.754C1017.96 22.486 1016.86 22.852 1015.56 22.852C1014.59 22.852 1013.73 22.666 1012.99 22.294C1012.25 21.922 1011.69 21.376 1011.29 20.656L1013.27 19.522C1013.73 20.362 1014.52 20.782 1015.63 20.782C1016.36 20.782 1016.94 20.59 1017.36 20.206C1017.78 19.822 1017.99 19.276 1017.99 18.568V17.596C1017.31 18.508 1016.35 18.964 1015.11 18.964C1013.84 18.964 1012.77 18.52 1011.91 17.632C1011.05 16.732 1010.63 15.64 1010.63 14.356C1010.63 13.084 1011.06 11.998 1011.92 11.098C1012.79 10.198 1013.85 9.748 1015.11 9.748C1016.35 9.748 1017.31 10.204 1017.99 11.116V10ZM1013.65 16.138C1014.13 16.594 1014.74 16.822 1015.47 16.822C1016.2 16.822 1016.8 16.594 1017.27 16.138C1017.75 15.67 1017.99 15.076 1017.99 14.356C1017.99 13.648 1017.75 13.066 1017.27 12.61C1016.8 12.142 1016.2 11.908 1015.47 11.908C1014.74 11.908 1014.13 12.142 1013.65 12.61C1013.18 13.066 1012.95 13.648 1012.95 14.356C1012.95 15.076 1013.18 15.67 1013.65 16.138Z" fill="white"/>
<path d="M878.27 19L877.514 16.732H872.492L871.736 19H869.054L873.464 6.4H876.542L880.97 19H878.27ZM873.284 14.41H876.74L875.012 9.262L873.284 14.41ZM887.323 9.748C888.535 9.748 889.567 10.21 890.419 11.134C891.283 12.046 891.715 13.168 891.715 14.5C891.715 15.832 891.283 16.96 890.419 17.884C889.567 18.796 888.535 19.252 887.323 19.252C886.063 19.252 885.091 18.814 884.407 17.938V19H882.085V6.4H884.407V11.062C885.091 10.186 886.063 9.748 887.323 9.748ZM885.109 16.336C885.577 16.804 886.171 17.038 886.891 17.038C887.611 17.038 888.205 16.804 888.673 16.336C889.153 15.856 889.393 15.244 889.393 14.5C889.393 13.756 889.153 13.15 888.673 12.682C888.205 12.202 887.611 11.962 886.891 11.962C886.171 11.962 885.577 12.202 885.109 12.682C884.641 13.15 884.407 13.756 884.407 14.5C884.407 15.244 884.641 15.856 885.109 16.336ZM901.021 17.884C900.097 18.796 898.969 19.252 897.637 19.252C896.305 19.252 895.177 18.796 894.253 17.884C893.341 16.96 892.885 15.832 892.885 14.5C892.885 13.168 893.341 12.046 894.253 11.134C895.177 10.21 896.305 9.748 897.637 9.748C898.969 9.748 900.097 10.21 901.021 11.134C901.945 12.046 902.407 13.168 902.407 14.5C902.407 15.832 901.945 16.96 901.021 17.884ZM895.891 16.282C896.359 16.75 896.941 16.984 897.637 16.984C898.333 16.984 898.915 16.75 899.383 16.282C899.851 15.814 900.085 15.22 900.085 14.5C900.085 13.78 899.851 13.186 899.383 12.718C898.915 12.25 898.333 12.016 897.637 12.016C896.941 12.016 896.359 12.25 895.891 12.718C895.435 13.186 895.207 13.78 895.207 14.5C895.207 15.22 895.435 15.814 895.891 16.282ZM909.981 10H912.303V19H909.981V17.992C909.417 18.832 908.523 19.252 907.299 19.252C906.315 19.252 905.499 18.922 904.851 18.262C904.215 17.602 903.897 16.69 903.897 15.526V10H906.219V15.238C906.219 15.838 906.381 16.3 906.705 16.624C907.029 16.936 907.461 17.092 908.001 17.092C908.601 17.092 909.081 16.906 909.441 16.534C909.801 16.162 909.981 15.604 909.981 14.86V10ZM919.577 12.232H917.543V15.976C917.543 16.288 917.621 16.516 917.777 16.66C917.933 16.804 918.161 16.888 918.461 16.912C918.761 16.924 919.133 16.918 919.577 16.894V19C917.981 19.18 916.853 19.03 916.193 18.55C915.545 18.07 915.221 17.212 915.221 15.976V12.232H913.655V10H915.221V8.182L917.543 7.48V10H919.577V12.232ZM931.795 10H934.117V19H931.795V17.992C931.231 18.832 930.337 19.252 929.113 19.252C928.129 19.252 927.313 18.922 926.665 18.262C926.029 17.602 925.711 16.69 925.711 15.526V10H928.033V15.238C928.033 15.838 928.195 16.3 928.519 16.624C928.843 16.936 929.275 17.092 929.815 17.092C930.415 17.092 930.895 16.906 931.255 16.534C931.615 16.162 931.795 15.604 931.795 14.86V10ZM938.315 12.556C938.315 12.796 938.471 12.994 938.783 13.15C939.107 13.294 939.497 13.426 939.953 13.546C940.409 13.654 940.865 13.798 941.321 13.978C941.777 14.146 942.161 14.434 942.473 14.842C942.797 15.25 942.959 15.76 942.959 16.372C942.959 17.296 942.611 18.01 941.915 18.514C941.231 19.006 940.373 19.252 939.341 19.252C937.493 19.252 936.233 18.538 935.561 17.11L937.577 15.976C937.841 16.756 938.429 17.146 939.341 17.146C940.169 17.146 940.583 16.888 940.583 16.372C940.583 16.132 940.421 15.94 940.097 15.796C939.785 15.64 939.401 15.502 938.945 15.382C938.489 15.262 938.033 15.112 937.577 14.932C937.121 14.752 936.731 14.47 936.407 14.086C936.095 13.69 935.939 13.198 935.939 12.61C935.939 11.722 936.263 11.026 936.911 10.522C937.571 10.006 938.387 9.748 939.359 9.748C940.091 9.748 940.757 9.916 941.357 10.252C941.957 10.576 942.431 11.044 942.779 11.656L940.799 12.736C940.511 12.124 940.031 11.818 939.359 11.818C939.059 11.818 938.807 11.884 938.603 12.016C938.411 12.148 938.315 12.328 938.315 12.556Z" fill="white"/>
<path d="M742.654 16.624H747.964V19H740.17V6.4H747.874V8.776H742.654V11.458H747.424V13.798H742.654V16.624ZM756.236 10H758.558V22.6H756.236V17.938C755.552 18.814 754.58 19.252 753.32 19.252C752.108 19.252 751.07 18.796 750.206 17.884C749.354 16.96 748.928 15.832 748.928 14.5C748.928 13.168 749.354 12.046 750.206 11.134C751.07 10.21 752.108 9.748 753.32 9.748C754.58 9.748 755.552 10.186 756.236 11.062V10ZM751.952 16.336C752.432 16.804 753.032 17.038 753.752 17.038C754.472 17.038 755.066 16.804 755.534 16.336C756.002 15.856 756.236 15.244 756.236 14.5C756.236 13.756 756.002 13.15 755.534 12.682C755.066 12.202 754.472 11.962 753.752 11.962C753.032 11.962 752.432 12.202 751.952 12.682C751.484 13.15 751.25 13.756 751.25 14.5C751.25 15.244 751.484 15.856 751.952 16.336ZM766.621 10H768.943V19H766.621V17.992C766.057 18.832 765.163 19.252 763.939 19.252C762.955 19.252 762.139 18.922 761.491 18.262C760.855 17.602 760.537 16.69 760.537 15.526V10H762.859V15.238C762.859 15.838 763.021 16.3 763.345 16.624C763.669 16.936 764.101 17.092 764.641 17.092C765.241 17.092 765.721 16.906 766.081 16.534C766.441 16.162 766.621 15.604 766.621 14.86V10ZM772.222 8.92C771.838 8.92 771.502 8.782 771.214 8.506C770.938 8.218 770.8 7.882 770.8 7.498C770.8 7.114 770.938 6.778 771.214 6.49C771.502 6.202 771.838 6.058 772.222 6.058C772.618 6.058 772.954 6.202 773.23 6.49C773.518 6.778 773.662 7.114 773.662 7.498C773.662 7.882 773.518 8.218 773.23 8.506C772.954 8.782 772.618 8.92 772.222 8.92ZM771.07 19V10H773.392V19H771.07ZM780.755 9.748C781.967 9.748 782.999 10.21 783.851 11.134C784.715 12.046 785.147 13.168 785.147 14.5C785.147 15.832 784.715 16.96 783.851 17.884C782.999 18.796 781.967 19.252 780.755 19.252C779.495 19.252 778.523 18.814 777.839 17.938V22.6H775.517V10H777.839V11.062C778.523 10.186 779.495 9.748 780.755 9.748ZM778.541 16.336C779.009 16.804 779.603 17.038 780.323 17.038C781.043 17.038 781.637 16.804 782.105 16.336C782.585 15.856 782.825 15.244 782.825 14.5C782.825 13.756 782.585 13.15 782.105 12.682C781.637 12.202 781.043 11.962 780.323 11.962C779.603 11.962 779.009 12.202 778.541 12.682C778.073 13.15 777.839 13.756 777.839 14.5C777.839 15.244 778.073 15.856 778.541 16.336ZM796.739 9.748C797.771 9.748 798.593 10.084 799.205 10.756C799.829 11.428 800.141 12.328 800.141 13.456V19H797.819V13.618C797.819 13.078 797.687 12.658 797.423 12.358C797.159 12.058 796.787 11.908 796.307 11.908C795.779 11.908 795.365 12.082 795.065 12.43C794.777 12.778 794.633 13.282 794.633 13.942V19H792.311V13.618C792.311 13.078 792.179 12.658 791.915 12.358C791.651 12.058 791.279 11.908 790.799 11.908C790.283 11.908 789.869 12.082 789.557 12.43C789.257 12.778 789.107 13.282 789.107 13.942V19H786.785V10H789.107V10.954C789.647 10.15 790.481 9.748 791.609 9.748C792.713 9.748 793.529 10.18 794.057 11.044C794.657 10.18 795.551 9.748 796.739 9.748ZM804.075 15.454C804.387 16.582 805.233 17.146 806.613 17.146C807.501 17.146 808.173 16.846 808.629 16.246L810.501 17.326C809.613 18.61 808.305 19.252 806.577 19.252C805.089 19.252 803.895 18.802 802.995 17.902C802.095 17.002 801.645 15.868 801.645 14.5C801.645 13.144 802.089 12.016 802.977 11.116C803.865 10.204 805.005 9.748 806.397 9.748C807.717 9.748 808.803 10.204 809.655 11.116C810.519 12.028 810.951 13.156 810.951 14.5C810.951 14.8 810.921 15.118 810.861 15.454H804.075ZM804.039 13.654H808.629C808.497 13.042 808.221 12.586 807.801 12.286C807.393 11.986 806.925 11.836 806.397 11.836C805.773 11.836 805.257 11.998 804.849 12.322C804.441 12.634 804.171 13.078 804.039 13.654ZM817.576 9.748C818.56 9.748 819.37 10.078 820.006 10.738C820.654 11.398 820.978 12.31 820.978 13.474V19H818.656V13.762C818.656 13.162 818.494 12.706 818.17 12.394C817.846 12.07 817.414 11.908 816.874 11.908C816.274 11.908 815.794 12.094 815.434 12.466C815.074 12.838 814.894 13.396 814.894 14.14V19H812.572V10H814.894V11.008C815.458 10.168 816.352 9.748 817.576 9.748ZM828.108 12.232H826.074V15.976C826.074 16.288 826.152 16.516 826.308 16.66C826.464 16.804 826.692 16.888 826.992 16.912C827.292 16.924 827.664 16.918 828.108 16.894V19C826.512 19.18 825.384 19.03 824.724 18.55C824.076 18.07 823.752 17.212 823.752 15.976V12.232H822.186V10H823.752V8.182L826.074 7.48V10H828.108V12.232Z" fill="white"/>
<path d="M1702.76 19L1702.04 16.858H1697.3L1696.58 19H1694.05L1698.22 7.1H1701.12L1705.31 19H1702.76ZM1698.05 14.665H1701.31L1699.68 9.803L1698.05 14.665ZM1710.17 19.238C1708.89 19.238 1707.82 18.8073 1706.96 17.946C1706.11 17.0847 1705.68 16.0193 1705.68 14.75C1705.68 13.4807 1706.11 12.4153 1706.96 11.554C1707.82 10.6927 1708.89 10.262 1710.17 10.262C1711 10.262 1711.75 10.4603 1712.43 10.857C1713.11 11.2537 1713.63 11.7863 1713.98 12.455L1712.09 13.56C1711.92 13.2087 1711.66 12.931 1711.31 12.727C1710.97 12.523 1710.59 12.421 1710.16 12.421C1709.5 12.421 1708.95 12.642 1708.52 13.084C1708.09 13.5147 1707.88 14.07 1707.88 14.75C1707.88 15.4187 1708.09 15.974 1708.52 16.416C1708.95 16.8467 1709.5 17.062 1710.16 17.062C1710.6 17.062 1710.99 16.9657 1711.33 16.773C1711.68 16.569 1711.94 16.2913 1712.11 15.94L1714.01 17.028C1713.64 17.6967 1713.11 18.235 1712.43 18.643C1711.75 19.0397 1711 19.238 1710.17 19.238ZM1719.09 19.238C1717.81 19.238 1716.74 18.8073 1715.87 17.946C1715.02 17.0847 1714.6 16.0193 1714.6 14.75C1714.6 13.4807 1715.02 12.4153 1715.87 11.554C1716.74 10.6927 1717.81 10.262 1719.09 10.262C1719.91 10.262 1720.67 10.4603 1721.35 10.857C1722.03 11.2537 1722.54 11.7863 1722.9 12.455L1721.01 13.56C1720.84 13.2087 1720.58 12.931 1720.23 12.727C1719.89 12.523 1719.5 12.421 1719.07 12.421C1718.41 12.421 1717.87 12.642 1717.44 13.084C1717.01 13.5147 1716.79 14.07 1716.79 14.75C1716.79 15.4187 1717.01 15.974 1717.44 16.416C1717.87 16.8467 1718.41 17.062 1719.07 17.062C1719.51 17.062 1719.9 16.9657 1720.24 16.773C1720.59 16.569 1720.86 16.2913 1721.03 15.94L1722.93 17.028C1722.56 17.6967 1722.03 18.235 1721.35 18.643C1720.67 19.0397 1719.91 19.238 1719.09 19.238ZM1731.2 17.946C1730.33 18.8073 1729.26 19.238 1728 19.238C1726.74 19.238 1725.68 18.8073 1724.81 17.946C1723.94 17.0733 1723.51 16.008 1723.51 14.75C1723.51 13.492 1723.94 12.4323 1724.81 11.571C1725.68 10.6983 1726.74 10.262 1728 10.262C1729.26 10.262 1730.33 10.6983 1731.2 11.571C1732.07 12.4323 1732.51 13.492 1732.51 14.75C1732.51 16.008 1732.07 17.0733 1731.2 17.946ZM1726.35 16.433C1726.8 16.875 1727.34 17.096 1728 17.096C1728.66 17.096 1729.21 16.875 1729.65 16.433C1730.09 15.991 1730.31 15.43 1730.31 14.75C1730.31 14.07 1730.09 13.509 1729.65 13.067C1729.21 12.625 1728.66 12.404 1728 12.404C1727.34 12.404 1726.8 12.625 1726.35 13.067C1725.92 13.509 1725.71 14.07 1725.71 14.75C1725.71 15.43 1725.92 15.991 1726.35 16.433ZM1739.66 10.5H1741.85V19H1739.66V18.048C1739.13 18.8413 1738.28 19.238 1737.13 19.238C1736.2 19.238 1735.43 18.9263 1734.81 18.303C1734.21 17.6797 1733.91 16.8183 1733.91 15.719V10.5H1736.11V15.447C1736.11 16.0137 1736.26 16.45 1736.57 16.756C1736.87 17.0507 1737.28 17.198 1737.79 17.198C1738.36 17.198 1738.81 17.0223 1739.15 16.671C1739.49 16.3197 1739.66 15.7927 1739.66 15.09V10.5ZM1748.59 10.262C1749.52 10.262 1750.28 10.5737 1750.88 11.197C1751.49 11.8203 1751.8 12.6817 1751.8 13.781V19H1749.61V14.053C1749.61 13.4863 1749.45 13.0557 1749.15 12.761C1748.84 12.455 1748.43 12.302 1747.92 12.302C1747.36 12.302 1746.9 12.4777 1746.56 12.829C1746.22 13.1803 1746.05 13.7073 1746.05 14.41V19H1743.86V10.5H1746.05V11.452C1746.59 10.6587 1747.43 10.262 1748.59 10.262ZM1758.53 12.608H1756.61V16.144C1756.61 16.4387 1756.69 16.654 1756.83 16.79C1756.98 16.926 1757.2 17.0053 1757.48 17.028C1757.76 17.0393 1758.12 17.0337 1758.53 17.011V19C1757.03 19.17 1755.96 19.0283 1755.34 18.575C1754.73 18.1217 1754.42 17.3113 1754.42 16.144V12.608H1752.94V10.5H1754.42V8.783L1756.61 8.12V10.5H1758.53V12.608Z" fill="white"/>
<path fill-rule="evenodd" clip-rule="evenodd" d="M1674 3C1668.48 3 1664 7.48 1664 13C1664 18.52 1668.48 23 1674 23C1679.52 23 1684 18.52 1684 13C1684 7.48 1679.52 3 1674 3ZM1669.07 19.28C1669.5 18.38 1672.12 17.5 1674 17.5C1675.88 17.5 1678.51 18.38 1678.93 19.28C1677.57 20.36 1675.86 21 1674 21C1672.14 21 1670.43 20.36 1669.07 19.28ZM1680.36 17.83C1678.93 16.09 1675.46 15.5 1674 15.5C1672.54 15.5 1669.07 16.09 1667.64 17.83C1666.62 16.49 1666 14.82 1666 13C1666 8.59 1669.59 5 1674 5C1678.41 5 1682 8.59 1682 13C1682 14.82 1681.38 16.49 1680.36 17.83ZM1674 7C1672.06 7 1670.5 8.56 1670.5 10.5C1670.5 12.44 1672.06 14 1674 14C1675.94 14 1677.5 12.44 1677.5 10.5C1677.5 8.56 1675.94 7 1674 7ZM1674 12C1673.17 12 1672.5 11.33 1672.5 10.5C1672.5 9.67 1673.17 9 1674 9C1674.83 9 1675.5 9.67 1675.5 10.5C1675.5 11.33 1674.83 12 1674 12Z" fill="white"/>
<mask id="mask0_1_161" style="mask-type:luminance" maskUnits="userSpaceOnUse" x="1664" y="3" width="20" height="20">
<path fill-rule="evenodd" clip-rule="evenodd" d="M1674 3C1668.48 3 1664 7.48 1664 13C1664 18.52 1668.48 23 1674 23C1679.52 23 1684 18.52 1684 13C1684 7.48 1679.52 3 1674 3ZM1669.07 19.28C1669.5 18.38 1672.12 17.5 1674 17.5C1675.88 17.5 1678.51 18.38 1678.93 19.28C1677.57 20.36 1675.86 21 1674 21C1672.14 21 1670.43 20.36 1669.07 19.28ZM1680.36 17.83C1678.93 16.09 1675.46 15.5 1674 15.5C1672.54 15.5 1669.07 16.09 1667.64 17.83C1666.62 16.49 1666 14.82 1666 13C1666 8.59 1669.59 5 1674 5C1678.41 5 1682 8.59 1682 13C1682 14.82 1681.38 16.49 1680.36 17.83ZM1674 7C1672.06 7 1670.5 8.56 1670.5 10.5C1670.5 12.44 1672.06 14 1674 14C1675.94 14 1677.5 12.44 1677.5 10.5C1677.5 8.56 1675.94 7 1674 7ZM1674 12C1673.17 12 1672.5 11.33 1672.5 10.5C1672.5 9.67 1673.17 9 1674 9C1674.83 9 1675.5 9.67 1675.5 10.5C1675.5 11.33 1674.83 12 1674 12Z" fill="white"/>
</mask>
<g mask="url(#mask0_1_161)">
</g>
<g clip-path="url(#clip1_1_161)">
<path d="M0.96 23H9.856V22.552C6.656 22.136 5.696 20.792 5.696 17.56V2.872H5.888L14.208 23.032H15.36L22.816 2.872H22.976V20.728C22.976 22.008 22.176 22.456 19.904 22.552V23H30.944V22.552C28.256 22.456 27.616 21.944 27.616 20.728V2.968C27.616 1.752 28.256 1.208 30.944 1.112V0.695999H22.784L16.736 17.144H16.576L9.984 0.695999H0.96V1.112C3.712 1.176 4.896 2.648 4.896 4.568V17.56C4.896 20.792 3.968 22.168 0.96 22.552V23Z" fill="white"/>
<path d="M52.128 23.352H53.664V6.104C53.664 2.936 54.528 1.56 57.536 1.112V0.695999H48.448V1.112C51.68 1.496 52.864 2.936 52.864 6.104V16.728H52.832L40.512 0.695999H32.96V1.112C35.712 1.24 36.896 2.872 36.896 4.824V17.56C36.896 20.792 35.968 22.168 32.96 22.552V23H41.984V22.552C38.72 22.2 37.696 20.792 37.696 17.56V4.728H37.728L52.128 23.352Z" fill="white"/>
<path d="M63.6 23H75.696V22.552C72.848 22.488 71.984 21.944 71.984 20.728V1.272H72.752C75.216 1.272 77.136 3.736 79.376 8.088L79.856 8.024L79.696 0.695999H59.568L59.376 8.024L59.856 8.088C62.128 3.64 64.08 1.272 66.512 1.272H67.312V20.728C67.312 21.944 66.416 22.488 63.6 22.552V23Z" fill="white"/>
<path d="M102.128 23.352H103.664V6.104C103.664 2.936 104.528 1.56 107.536 1.112V0.695999H98.448V1.112C101.68 1.496 102.864 2.936 102.864 6.104V16.728H102.832L90.512 0.695999H82.96V1.112C85.712 1.24 86.896 2.872 86.896 4.824V17.56C86.896 20.792 85.968 22.168 82.96 22.552V23H91.984V22.552C88.72 22.2 87.696 20.792 87.696 17.56V4.728H87.728L102.128 23.352Z" fill="white"/>
</g>
</g>
<defs>
<clipPath id="clip0_1_161">
<rect width="1760" height="25" fill="white"/>
</clipPath>
<clipPath id="clip1_1_161">
<rect width="108" height="24" fill="white"/>
</clipPath>
</defs>
</svg>
